<mxfile host="app.diagrams.net" modified="2024-06-07T10:31:56.519Z" agent="Mozilla/5.0 (X11; Linux x86_64) AppleWebKit/537.36 (KHTML, like Gecko) Chrome/125.0.0.0 Safari/537.36" etag="qSvJpjtqYJUSbeIMgE_1" version="24.4.13" type="google">
  <diagram name="Page-1" id="6hilnvR5gjLChqrZkT6O">
    <mxGraphModel grid="1" page="1" gridSize="10" guides="1" tooltips="1" connect="1" arrows="1" fold="1" pageScale="1" pageWidth="850" pageHeight="1100" math="0" shadow="0">
      <root>
        <mxCell id="0" />
        <mxCell id="1" parent="0" />
        <mxCell id="jErjd7cucbJIe39EgPCz-1" value="" style="rounded=0;whiteSpace=wrap;html=1;" vertex="1" parent="1">
          <mxGeometry x="55" y="370" width="120" height="60" as="geometry" />
        </mxCell>
        <mxCell id="jErjd7cucbJIe39EgPCz-2" value="&lt;font style=&quot;font-size: 14px;&quot;&gt;&lt;b&gt;Patient&lt;/b&gt;&lt;/font&gt;" style="text;strokeColor=none;align=center;fillColor=none;html=1;verticalAlign=middle;whiteSpace=wrap;rounded=0;" vertex="1" parent="1">
          <mxGeometry x="85" y="385" width="60" height="30" as="geometry" />
        </mxCell>
        <mxCell id="jErjd7cucbJIe39EgPCz-3" value="" style="ellipse;whiteSpace=wrap;html=1;aspect=fixed;" vertex="1" parent="1">
          <mxGeometry x="315" y="350" width="100" height="100" as="geometry" />
        </mxCell>
        <mxCell id="jErjd7cucbJIe39EgPCz-4" value="&lt;font style=&quot;font-size: 14px;&quot;&gt;&lt;b&gt;Assign Room /&amp;nbsp;&lt;/b&gt;&lt;/font&gt;&lt;b style=&quot;font-size: 14px; background-color: initial;&quot;&gt;Facility&lt;/b&gt;" style="text;strokeColor=none;align=center;fillColor=none;html=1;verticalAlign=middle;whiteSpace=wrap;rounded=0;" vertex="1" parent="1">
          <mxGeometry x="335" y="375" width="60" height="50" as="geometry" />
        </mxCell>
        <mxCell id="jErjd7cucbJIe39EgPCz-7" value="" style="endArrow=classic;html=1;rounded=0;entryX=0.049;entryY=0.263;entryDx=0;entryDy=0;entryPerimeter=0;" edge="1" parent="1" target="jErjd7cucbJIe39EgPCz-3">
          <mxGeometry width="50" height="50" relative="1" as="geometry">
            <mxPoint x="175" y="375" as="sourcePoint" />
            <mxPoint x="312" y="378" as="targetPoint" />
          </mxGeometry>
        </mxCell>
        <mxCell id="jErjd7cucbJIe39EgPCz-8" value="Patient Diagnosis" style="text;strokeColor=none;align=center;fillColor=none;html=1;verticalAlign=middle;whiteSpace=wrap;rounded=0;" vertex="1" parent="1">
          <mxGeometry x="195" y="345" width="110" height="30" as="geometry" />
        </mxCell>
        <mxCell id="jErjd7cucbJIe39EgPCz-9" value="" style="endArrow=classic;html=1;rounded=0;" edge="1" parent="1">
          <mxGeometry width="50" height="50" relative="1" as="geometry">
            <mxPoint x="315" y="415" as="sourcePoint" />
            <mxPoint x="175" y="415" as="targetPoint" />
          </mxGeometry>
        </mxCell>
        <mxCell id="jErjd7cucbJIe39EgPCz-10" value="Assigned Facilities" style="text;strokeColor=none;align=center;fillColor=none;html=1;verticalAlign=middle;whiteSpace=wrap;rounded=0;" vertex="1" parent="1">
          <mxGeometry x="195" y="415" width="110" height="30" as="geometry" />
        </mxCell>
        <mxCell id="jErjd7cucbJIe39EgPCz-11" value="" style="shape=process;whiteSpace=wrap;html=1;backgroundOutline=1;" vertex="1" parent="1">
          <mxGeometry x="115" y="510" width="120" height="60" as="geometry" />
        </mxCell>
        <mxCell id="jErjd7cucbJIe39EgPCz-12" value="&lt;font style=&quot;font-size: 14px;&quot;&gt;&lt;b&gt;Medicine Database&lt;/b&gt;&lt;/font&gt;" style="text;strokeColor=none;align=center;fillColor=none;html=1;verticalAlign=middle;whiteSpace=wrap;rounded=0;" vertex="1" parent="1">
          <mxGeometry x="145" y="525" width="60" height="30" as="geometry" />
        </mxCell>
        <mxCell id="jErjd7cucbJIe39EgPCz-13" value="" style="ellipse;whiteSpace=wrap;html=1;aspect=fixed;" vertex="1" parent="1">
          <mxGeometry x="315" y="490" width="100" height="100" as="geometry" />
        </mxCell>
        <mxCell id="jErjd7cucbJIe39EgPCz-14" value="" style="endArrow=classic;html=1;rounded=0;entryX=1;entryY=0.5;entryDx=0;entryDy=0;" edge="1" parent="1" target="jErjd7cucbJIe39EgPCz-11">
          <mxGeometry width="50" height="50" relative="1" as="geometry">
            <mxPoint x="315" y="540" as="sourcePoint" />
            <mxPoint x="365" y="490" as="targetPoint" />
          </mxGeometry>
        </mxCell>
        <mxCell id="jErjd7cucbJIe39EgPCz-15" value="Assigned&lt;br&gt;Medicines" style="text;strokeColor=none;align=center;fillColor=none;html=1;verticalAlign=middle;whiteSpace=wrap;rounded=0;" vertex="1" parent="1">
          <mxGeometry x="245" y="500" width="60" height="30" as="geometry" />
        </mxCell>
        <mxCell id="jErjd7cucbJIe39EgPCz-16" value="&lt;font style=&quot;font-size: 14px;&quot;&gt;&lt;b&gt;Assign Medicine&lt;/b&gt;&lt;/font&gt;" style="text;strokeColor=none;align=center;fillColor=none;html=1;verticalAlign=middle;whiteSpace=wrap;rounded=0;" vertex="1" parent="1">
          <mxGeometry x="335" y="525" width="60" height="30" as="geometry" />
        </mxCell>
        <mxCell id="jErjd7cucbJIe39EgPCz-17" value="" style="endArrow=classic;html=1;rounded=0;entryX=0.106;entryY=1.02;entryDx=0;entryDy=0;entryPerimeter=0;" edge="1" parent="1" target="jErjd7cucbJIe39EgPCz-1">
          <mxGeometry width="50" height="50" relative="1" as="geometry">
            <mxPoint x="115" y="539.55" as="sourcePoint" />
            <mxPoint x="35" y="539.55" as="targetPoint" />
            <Array as="points">
              <mxPoint x="68" y="540" />
            </Array>
          </mxGeometry>
        </mxCell>
        <mxCell id="jErjd7cucbJIe39EgPCz-18" value="Assigned&lt;br&gt;Medicines" style="text;strokeColor=none;align=center;fillColor=none;html=1;verticalAlign=middle;whiteSpace=wrap;rounded=0;rotation=-90;" vertex="1" parent="1">
          <mxGeometry x="15" y="470" width="60" height="30" as="geometry" />
        </mxCell>
        <mxCell id="jErjd7cucbJIe39EgPCz-19" value="" style="endArrow=classic;html=1;rounded=0;entryX=0.3;entryY=0;entryDx=0;entryDy=0;entryPerimeter=0;" edge="1" parent="1" target="jErjd7cucbJIe39EgPCz-13">
          <mxGeometry width="50" height="50" relative="1" as="geometry">
            <mxPoint x="145" y="430" as="sourcePoint" />
            <mxPoint x="335" y="470" as="targetPoint" />
            <Array as="points">
              <mxPoint x="145" y="460" />
              <mxPoint x="305" y="460" />
            </Array>
          </mxGeometry>
        </mxCell>
        <mxCell id="jErjd7cucbJIe39EgPCz-20" value="Patient Diagnosis" style="text;strokeColor=none;align=center;fillColor=none;html=1;verticalAlign=middle;whiteSpace=wrap;rounded=0;" vertex="1" parent="1">
          <mxGeometry x="145" y="460" width="120" height="30" as="geometry" />
        </mxCell>
        <mxCell id="jErjd7cucbJIe39EgPCz-21" value="" style="shape=process;whiteSpace=wrap;html=1;backgroundOutline=1;" vertex="1" parent="1">
          <mxGeometry x="115" y="220" width="120" height="60" as="geometry" />
        </mxCell>
        <mxCell id="jErjd7cucbJIe39EgPCz-22" value="&lt;b&gt;&lt;font style=&quot;font-size: 14px;&quot;&gt;Patient Database&lt;/font&gt;&lt;/b&gt;" style="text;strokeColor=none;align=center;fillColor=none;html=1;verticalAlign=middle;whiteSpace=wrap;rounded=0;" vertex="1" parent="1">
          <mxGeometry x="145" y="235" width="60" height="30" as="geometry" />
        </mxCell>
        <mxCell id="jErjd7cucbJIe39EgPCz-23" value="" style="endArrow=classic;html=1;rounded=0;entryX=0.833;entryY=0.035;entryDx=0;entryDy=0;entryPerimeter=0;" edge="1" parent="1" target="jErjd7cucbJIe39EgPCz-1">
          <mxGeometry width="50" height="50" relative="1" as="geometry">
            <mxPoint x="155" y="280" as="sourcePoint" />
            <mxPoint x="205" y="230" as="targetPoint" />
          </mxGeometry>
        </mxCell>
        <mxCell id="jErjd7cucbJIe39EgPCz-24" value="Bill Info" style="text;strokeColor=none;align=center;fillColor=none;html=1;verticalAlign=middle;whiteSpace=wrap;rounded=0;rotation=-90;" vertex="1" parent="1">
          <mxGeometry x="115" y="300" width="60" height="30" as="geometry" />
        </mxCell>
        <mxCell id="jErjd7cucbJIe39EgPCz-25" value="" style="endArrow=classic;html=1;rounded=0;" edge="1" parent="1">
          <mxGeometry width="50" height="50" relative="1" as="geometry">
            <mxPoint x="55" y="395" as="sourcePoint" />
            <mxPoint x="113" y="240" as="targetPoint" />
            <Array as="points">
              <mxPoint x="35" y="395" />
              <mxPoint x="35" y="240" />
            </Array>
          </mxGeometry>
        </mxCell>
        <mxCell id="jErjd7cucbJIe39EgPCz-26" value="Patient Information" style="text;strokeColor=none;align=center;fillColor=none;html=1;verticalAlign=middle;whiteSpace=wrap;rounded=0;rotation=-90;" vertex="1" parent="1">
          <mxGeometry x="-15" y="290" width="120" height="30" as="geometry" />
        </mxCell>
        <mxCell id="jErjd7cucbJIe39EgPCz-27" value="" style="endArrow=classic;html=1;rounded=0;entryX=0.25;entryY=0;entryDx=0;entryDy=0;" edge="1" parent="1" target="jErjd7cucbJIe39EgPCz-1">
          <mxGeometry width="50" height="50" relative="1" as="geometry">
            <mxPoint x="115" y="270" as="sourcePoint" />
            <mxPoint x="165" y="220" as="targetPoint" />
            <Array as="points">
              <mxPoint x="85" y="270" />
            </Array>
          </mxGeometry>
        </mxCell>
        <mxCell id="jErjd7cucbJIe39EgPCz-28" value="&lt;font style=&quot;font-size: 10px;&quot;&gt;Patient Diagnosis&lt;/font&gt;" style="text;strokeColor=none;align=center;fillColor=none;html=1;verticalAlign=middle;whiteSpace=wrap;rounded=0;rotation=-90;" vertex="1" parent="1">
          <mxGeometry x="35" y="300" width="120" height="30" as="geometry" />
        </mxCell>
        <mxCell id="jErjd7cucbJIe39EgPCz-29" value="" style="ellipse;whiteSpace=wrap;html=1;aspect=fixed;" vertex="1" parent="1">
          <mxGeometry x="425" y="210" width="100" height="100" as="geometry" />
        </mxCell>
        <mxCell id="jErjd7cucbJIe39EgPCz-30" value="" style="endArrow=classic;html=1;rounded=0;entryX=0.009;entryY=0.294;entryDx=0;entryDy=0;entryPerimeter=0;" edge="1" parent="1" target="jErjd7cucbJIe39EgPCz-29">
          <mxGeometry width="50" height="50" relative="1" as="geometry">
            <mxPoint x="235" y="240" as="sourcePoint" />
            <mxPoint x="285" y="190" as="targetPoint" />
          </mxGeometry>
        </mxCell>
        <mxCell id="jErjd7cucbJIe39EgPCz-31" value="Patient Information" style="text;strokeColor=none;align=center;fillColor=none;html=1;verticalAlign=middle;whiteSpace=wrap;rounded=0;" vertex="1" parent="1">
          <mxGeometry x="275" y="210" width="120" height="30" as="geometry" />
        </mxCell>
        <mxCell id="jErjd7cucbJIe39EgPCz-32" value="" style="endArrow=classic;html=1;rounded=0;entryX=1;entryY=0.75;entryDx=0;entryDy=0;" edge="1" parent="1" target="jErjd7cucbJIe39EgPCz-21">
          <mxGeometry width="50" height="50" relative="1" as="geometry">
            <mxPoint x="425" y="265" as="sourcePoint" />
            <mxPoint x="475" y="215" as="targetPoint" />
          </mxGeometry>
        </mxCell>
        <mxCell id="jErjd7cucbJIe39EgPCz-33" value="Patient Diagnosis" style="text;strokeColor=none;align=center;fillColor=none;html=1;verticalAlign=middle;whiteSpace=wrap;rounded=0;" vertex="1" parent="1">
          <mxGeometry x="275" y="265" width="120" height="30" as="geometry" />
        </mxCell>
        <mxCell id="jErjd7cucbJIe39EgPCz-34" value="" style="endArrow=classic;html=1;rounded=0;entryX=0.75;entryY=1;entryDx=0;entryDy=0;" edge="1" parent="1" target="jErjd7cucbJIe39EgPCz-21">
          <mxGeometry width="50" height="50" relative="1" as="geometry">
            <mxPoint x="435" y="290" as="sourcePoint" />
            <mxPoint x="205" y="320" as="targetPoint" />
            <Array as="points">
              <mxPoint x="435" y="320" />
              <mxPoint x="205" y="320" />
            </Array>
          </mxGeometry>
        </mxCell>
        <mxCell id="jErjd7cucbJIe39EgPCz-35" value="Bill Information" style="text;strokeColor=none;align=center;fillColor=none;html=1;verticalAlign=middle;whiteSpace=wrap;rounded=0;" vertex="1" parent="1">
          <mxGeometry x="245" y="290" width="90" height="30" as="geometry" />
        </mxCell>
        <mxCell id="jErjd7cucbJIe39EgPCz-36" value="&lt;font style=&quot;font-size: 14px;&quot;&gt;&lt;b&gt;Manage Patient&lt;/b&gt;&lt;/font&gt;" style="text;strokeColor=none;align=center;fillColor=none;html=1;verticalAlign=middle;whiteSpace=wrap;rounded=0;" vertex="1" parent="1">
          <mxGeometry x="445" y="245" width="60" height="30" as="geometry" />
        </mxCell>
        <mxCell id="jErjd7cucbJIe39EgPCz-37" value="" style="rounded=0;whiteSpace=wrap;html=1;" vertex="1" parent="1">
          <mxGeometry x="615" y="185" width="120" height="60" as="geometry" />
        </mxCell>
        <mxCell id="jErjd7cucbJIe39EgPCz-38" value="" style="endArrow=classic;html=1;rounded=0;entryX=0.424;entryY=-0.041;entryDx=0;entryDy=0;entryPerimeter=0;" edge="1" parent="1" target="jErjd7cucbJIe39EgPCz-21">
          <mxGeometry width="50" height="50" relative="1" as="geometry">
            <mxPoint x="615" y="200" as="sourcePoint" />
            <mxPoint x="665" y="150" as="targetPoint" />
            <Array as="points">
              <mxPoint x="165" y="200" />
            </Array>
          </mxGeometry>
        </mxCell>
        <mxCell id="jErjd7cucbJIe39EgPCz-39" value="Add / Edit / Delete Patient Information" style="text;strokeColor=none;align=center;fillColor=none;html=1;verticalAlign=middle;whiteSpace=wrap;rounded=0;" vertex="1" parent="1">
          <mxGeometry x="255" y="170" width="280" height="30" as="geometry" />
        </mxCell>
        <mxCell id="jErjd7cucbJIe39EgPCz-40" value="" style="endArrow=classic;html=1;rounded=0;entryX=0;entryY=0.75;entryDx=0;entryDy=0;" edge="1" parent="1" target="jErjd7cucbJIe39EgPCz-37">
          <mxGeometry width="50" height="50" relative="1" as="geometry">
            <mxPoint x="525" y="250" as="sourcePoint" />
            <mxPoint x="575" y="200" as="targetPoint" />
            <Array as="points">
              <mxPoint x="535" y="230" />
            </Array>
          </mxGeometry>
        </mxCell>
        <mxCell id="jErjd7cucbJIe39EgPCz-41" value="Patient Information" style="text;strokeColor=none;align=center;fillColor=none;html=1;verticalAlign=middle;whiteSpace=wrap;rounded=0;" vertex="1" parent="1">
          <mxGeometry x="525" y="245" width="110" height="30" as="geometry" />
        </mxCell>
        <mxCell id="jErjd7cucbJIe39EgPCz-42" value="&lt;font style=&quot;font-size: 14px;&quot;&gt;&lt;b&gt;Admin&lt;/b&gt;&lt;/font&gt;" style="text;strokeColor=none;align=center;fillColor=none;html=1;verticalAlign=middle;whiteSpace=wrap;rounded=0;" vertex="1" parent="1">
          <mxGeometry x="645" y="200" width="60" height="30" as="geometry" />
        </mxCell>
        <mxCell id="jErjd7cucbJIe39EgPCz-43" value="" style="rounded=0;whiteSpace=wrap;html=1;" vertex="1" parent="1">
          <mxGeometry x="545" y="340" width="120" height="60" as="geometry" />
        </mxCell>
        <mxCell id="jErjd7cucbJIe39EgPCz-44" value="&lt;font style=&quot;font-size: 14px;&quot;&gt;&lt;b&gt;Staff / Do&lt;/b&gt;&lt;/font&gt;&lt;b style=&quot;font-size: 14px; background-color: initial;&quot;&gt;ctor&lt;/b&gt;" style="text;strokeColor=none;align=center;fillColor=none;html=1;verticalAlign=middle;whiteSpace=wrap;rounded=0;" vertex="1" parent="1">
          <mxGeometry x="575" y="355" width="60" height="30" as="geometry" />
        </mxCell>
        <mxCell id="jErjd7cucbJIe39EgPCz-45" value="" style="endArrow=classic;html=1;rounded=0;" edge="1" parent="1">
          <mxGeometry width="50" height="50" relative="1" as="geometry">
            <mxPoint x="565" y="340" as="sourcePoint" />
            <mxPoint x="515" y="290" as="targetPoint" />
            <Array as="points">
              <mxPoint x="565" y="290" />
            </Array>
          </mxGeometry>
        </mxCell>
        <mxCell id="jErjd7cucbJIe39EgPCz-46" value="Patient Diagnosis" style="text;strokeColor=none;align=center;fillColor=none;html=1;verticalAlign=middle;whiteSpace=wrap;rounded=0;" vertex="1" parent="1">
          <mxGeometry x="565" y="290" width="100" height="30" as="geometry" />
        </mxCell>
        <mxCell id="jErjd7cucbJIe39EgPCz-47" value="" style="endArrow=classic;html=1;rounded=0;exitX=0.564;exitY=0.985;exitDx=0;exitDy=0;exitPerimeter=0;entryX=-0.008;entryY=0.398;entryDx=0;entryDy=0;entryPerimeter=0;" edge="1" parent="1" source="jErjd7cucbJIe39EgPCz-29" target="jErjd7cucbJIe39EgPCz-43">
          <mxGeometry width="50" height="50" relative="1" as="geometry">
            <mxPoint x="455" y="375" as="sourcePoint" />
            <mxPoint x="505" y="325" as="targetPoint" />
            <Array as="points">
              <mxPoint x="481" y="364" />
            </Array>
          </mxGeometry>
        </mxCell>
        <mxCell id="jErjd7cucbJIe39EgPCz-48" value="Patient Information" style="text;strokeColor=none;align=center;fillColor=none;html=1;verticalAlign=middle;whiteSpace=wrap;rounded=0;" vertex="1" parent="1">
          <mxGeometry x="375" y="325" width="110" height="30" as="geometry" />
        </mxCell>
        <mxCell id="jErjd7cucbJIe39EgPCz-49" value="" style="endArrow=classic;html=1;rounded=0;entryX=0.986;entryY=0.358;entryDx=0;entryDy=0;entryPerimeter=0;" edge="1" parent="1" target="jErjd7cucbJIe39EgPCz-3">
          <mxGeometry width="50" height="50" relative="1" as="geometry">
            <mxPoint x="545" y="385" as="sourcePoint" />
            <mxPoint x="595" y="335" as="targetPoint" />
          </mxGeometry>
        </mxCell>
        <mxCell id="jErjd7cucbJIe39EgPCz-50" value="Facilities Information" style="text;strokeColor=none;align=center;fillColor=none;html=1;verticalAlign=middle;whiteSpace=wrap;rounded=0;" vertex="1" parent="1">
          <mxGeometry x="425" y="385" width="120" height="30" as="geometry" />
        </mxCell>
        <mxCell id="jErjd7cucbJIe39EgPCz-51" value="" style="endArrow=classic;html=1;rounded=0;entryX=1.025;entryY=0.402;entryDx=0;entryDy=0;entryPerimeter=0;" edge="1" parent="1" target="jErjd7cucbJIe39EgPCz-13">
          <mxGeometry width="50" height="50" relative="1" as="geometry">
            <mxPoint x="565" y="400" as="sourcePoint" />
            <mxPoint x="615" y="350" as="targetPoint" />
            <Array as="points">
              <mxPoint x="565" y="530" />
            </Array>
          </mxGeometry>
        </mxCell>
        <mxCell id="jErjd7cucbJIe39EgPCz-52" value="Medicine Information" style="text;strokeColor=none;align=center;fillColor=none;html=1;verticalAlign=middle;whiteSpace=wrap;rounded=0;" vertex="1" parent="1">
          <mxGeometry x="435" y="500" width="120" height="30" as="geometry" />
        </mxCell>
        <mxCell id="jErjd7cucbJIe39EgPCz-53" value="" style="shape=process;whiteSpace=wrap;html=1;backgroundOutline=1;" vertex="1" parent="1">
          <mxGeometry x="605" y="470" width="120" height="60" as="geometry" />
        </mxCell>
        <mxCell id="jErjd7cucbJIe39EgPCz-54" value="&lt;font style=&quot;font-size: 14px;&quot;&gt;&lt;b&gt;Staff Database&lt;/b&gt;&lt;/font&gt;" style="text;strokeColor=none;align=center;fillColor=none;html=1;verticalAlign=middle;whiteSpace=wrap;rounded=0;" vertex="1" parent="1">
          <mxGeometry x="635" y="485" width="60" height="30" as="geometry" />
        </mxCell>
        <mxCell id="jErjd7cucbJIe39EgPCz-55" value="" style="endArrow=classic;html=1;rounded=0;entryX=0;entryY=0.25;entryDx=0;entryDy=0;" edge="1" parent="1" target="jErjd7cucbJIe39EgPCz-53">
          <mxGeometry width="50" height="50" relative="1" as="geometry">
            <mxPoint x="585" y="402.28" as="sourcePoint" />
            <mxPoint x="586.2399999999998" y="469.9999999999999" as="targetPoint" />
            <Array as="points">
              <mxPoint x="585" y="485" />
            </Array>
          </mxGeometry>
        </mxCell>
        <mxCell id="jErjd7cucbJIe39EgPCz-56" value="Staff / Doctor Information" style="text;strokeColor=none;align=center;fillColor=none;html=1;verticalAlign=middle;whiteSpace=wrap;rounded=0;" vertex="1" parent="1">
          <mxGeometry x="595" y="420" width="60" height="30" as="geometry" />
        </mxCell>
        <mxCell id="jErjd7cucbJIe39EgPCz-57" value="" style="endArrow=classic;html=1;rounded=0;entryX=0.995;entryY=0.629;entryDx=0;entryDy=0;entryPerimeter=0;" edge="1" parent="1" target="jErjd7cucbJIe39EgPCz-43">
          <mxGeometry width="50" height="50" relative="1" as="geometry">
            <mxPoint x="685" y="470" as="sourcePoint" />
            <mxPoint x="735" y="420" as="targetPoint" />
            <Array as="points">
              <mxPoint x="685" y="378" />
            </Array>
          </mxGeometry>
        </mxCell>
        <mxCell id="jErjd7cucbJIe39EgPCz-58" value="Assigned Department" style="text;strokeColor=none;align=center;fillColor=none;html=1;verticalAlign=middle;whiteSpace=wrap;rounded=0;rotation=90;" vertex="1" parent="1">
          <mxGeometry x="675" y="410" width="60" height="30" as="geometry" />
        </mxCell>
        <mxCell id="jErjd7cucbJIe39EgPCz-59" value="" style="endArrow=classic;html=1;rounded=0;entryX=0.99;entryY=-0.058;entryDx=0;entryDy=0;entryPerimeter=0;" edge="1" parent="1" target="jErjd7cucbJIe39EgPCz-53">
          <mxGeometry width="50" height="50" relative="1" as="geometry">
            <mxPoint x="725" y="245" as="sourcePoint" />
            <mxPoint x="775" y="195" as="targetPoint" />
          </mxGeometry>
        </mxCell>
        <mxCell id="jErjd7cucbJIe39EgPCz-60" value="Add / Edit / Delete Staff Info" style="text;strokeColor=none;align=center;fillColor=none;html=1;verticalAlign=middle;whiteSpace=wrap;rounded=0;rotation=90;" vertex="1" parent="1">
          <mxGeometry x="655" y="325" width="170" height="30" as="geometry" />
        </mxCell>
        <mxCell id="jErjd7cucbJIe39EgPCz-61" value="" style="endArrow=classic;html=1;rounded=0;entryX=1;entryY=0.5;entryDx=0;entryDy=0;" edge="1" parent="1" target="jErjd7cucbJIe39EgPCz-37">
          <mxGeometry width="50" height="50" relative="1" as="geometry">
            <mxPoint x="725" y="490" as="sourcePoint" />
            <mxPoint x="775" y="210" as="targetPoint" />
            <Array as="points">
              <mxPoint x="775" y="490" />
              <mxPoint x="775" y="215" />
            </Array>
          </mxGeometry>
        </mxCell>
        <mxCell id="jErjd7cucbJIe39EgPCz-62" value="Staff / Doctor Information" style="text;strokeColor=none;align=center;fillColor=none;html=1;verticalAlign=middle;whiteSpace=wrap;rounded=0;rotation=90;" vertex="1" parent="1">
          <mxGeometry x="705" y="330" width="160" height="30" as="geometry" />
        </mxCell>
        <mxCell id="jErjd7cucbJIe39EgPCz-63" value="" style="ellipse;whiteSpace=wrap;html=1;aspect=fixed;" vertex="1" parent="1">
          <mxGeometry x="475" y="555" width="100" height="100" as="geometry" />
        </mxCell>
        <mxCell id="jErjd7cucbJIe39EgPCz-64" value="&lt;b&gt;&lt;font style=&quot;font-size: 14px;&quot;&gt;Manage Staff / Doctor&lt;/font&gt;&lt;/b&gt;" style="text;strokeColor=none;align=center;fillColor=none;html=1;verticalAlign=middle;whiteSpace=wrap;rounded=0;" vertex="1" parent="1">
          <mxGeometry x="495" y="590" width="60" height="30" as="geometry" />
        </mxCell>
        <mxCell id="jErjd7cucbJIe39EgPCz-65" value="" style="endArrow=classic;html=1;rounded=0;entryX=1.001;entryY=0.348;entryDx=0;entryDy=0;entryPerimeter=0;" edge="1" parent="1" target="jErjd7cucbJIe39EgPCz-63">
          <mxGeometry width="50" height="50" relative="1" as="geometry">
            <mxPoint x="625" y="530" as="sourcePoint" />
            <mxPoint x="675" y="480" as="targetPoint" />
            <Array as="points">
              <mxPoint x="625" y="590" />
            </Array>
          </mxGeometry>
        </mxCell>
        <mxCell id="jErjd7cucbJIe39EgPCz-66" value="Staff / Doctor Information" style="text;strokeColor=none;align=center;fillColor=none;html=1;verticalAlign=middle;whiteSpace=wrap;rounded=0;" vertex="1" parent="1">
          <mxGeometry x="630" y="550" width="60" height="30" as="geometry" />
        </mxCell>
        <mxCell id="jErjd7cucbJIe39EgPCz-67" value="" style="endArrow=classic;html=1;rounded=0;entryX=0.864;entryY=1.119;entryDx=0;entryDy=0;entryPerimeter=0;" edge="1" parent="1" target="jErjd7cucbJIe39EgPCz-53">
          <mxGeometry width="50" height="50" relative="1" as="geometry">
            <mxPoint x="575" y="620" as="sourcePoint" />
            <mxPoint x="625" y="570" as="targetPoint" />
            <Array as="points">
              <mxPoint x="710" y="620" />
            </Array>
          </mxGeometry>
        </mxCell>
        <mxCell id="jErjd7cucbJIe39EgPCz-68" value="Assigned Department" style="text;strokeColor=none;align=center;fillColor=none;html=1;verticalAlign=middle;whiteSpace=wrap;rounded=0;" vertex="1" parent="1">
          <mxGeometry x="580" y="620" width="120" height="30" as="geometry" />
        </mxCell>
        <mxCell id="jErjd7cucbJIe39EgPCz-69" value="fig. Hospital Management System - Level 1" style="text;strokeColor=none;align=center;fillColor=none;html=1;verticalAlign=middle;whiteSpace=wrap;rounded=0;" vertex="1" parent="1">
          <mxGeometry x="225" y="670" width="280" height="30" as="geometry" />
        </mxCell>
      </root>
    </mxGraphModel>
  </diagram>
</mxfile>
